<svg xmlns="http://www.w3.org/2000/svg" xmlns:xlink="http://www.w3.org/1999/xlink" width="349" height="35"><path fill="#a27019" d="M11.52 7.51L4.78 7.51L4.78 7.51Q4.86 8.92 4.86 9.83L4.86 9.83L4.81 13.23L10.79 13.23L10.79 14.92L4.81 14.92L4.81 23.76L2.86 23.76L2.86 5.82L11.52 5.82L11.52 7.51ZM14.66 21.53L14.66 21.53L14.66 4.71L16.54 4.39L16.54 20.46L16.54 20.46Q16.54 21.84 16.74 22.24L16.74 22.24L16.74 22.24Q16.95 22.65 17.94 22.65L17.94 22.65L17.99 23.79L17.99 23.79Q17.58 23.97 16.59 23.97L16.59 23.97L16.59 23.97Q15.60 23.97 15.13 23.40L15.13 23.40L15.13 23.40Q14.66 22.83 14.66 21.53ZM21.48 13.34L21.48 13.34L21.48 13.34Q21.48 12.09 21.16 11.49L21.16 11.49L22.65 11.23L22.65 11.23Q23.09 11.34 23.21 11.75L23.21 11.75L23.21 11.75Q23.32 12.17 23.32 12.61L23.32 12.61L23.32 12.61Q23.32 12.92 23.22 16.19L23.22 16.19L23.22 16.19Q23.11 19.45 23.11 19.81L23.11 19.81L23.11 19.81Q23.11 20.18 23.15 20.63L23.15 20.63L23.15 20.63Q23.19 21.09 23.40 21.58L23.40 21.58L23.40 21.58Q23.76 22.59 25.17 22.59L25.17 22.59L25.17 22.59Q26.21 22.59 26.95 21.85L26.95 21.85L26.95 21.85Q27.69 21.11 28.03 19.89L28.03 19.89L28.03 19.89Q28.68 17.68 28.68 15.05L28.68 15.05L28.68 11.54L30.42 11.54L30.42 18.64L30.42 18.64Q30.42 20.96 30.76 21.83L30.76 21.83L30.76 21.83Q31.10 22.70 32.27 22.70L32.27 22.70L32.32 23.87L32.32 23.87Q31.90 23.97 31.28 23.97L31.28 23.97L31.28 23.97Q29.98 23.97 29.47 23.21L29.47 23.21L29.47 23.21Q28.96 22.44 28.96 21.42L28.96 21.42L28.96 21.42Q28.96 21.14 28.99 20.83L28.99 20.83L28.83 20.83L28.83 20.83Q28.42 22.41 27.31 23.24L27.31 23.24L27.31 23.24Q26.21 24.08 24.43 24.08L24.43 24.08L24.43 24.08Q22.65 24.08 21.94 22.98L21.94 22.98L21.94 22.98Q21.24 21.89 21.24 19.99L21.24 19.99L21.24 19.99Q21.24 19.76 21.36 16.64L21.36 16.64L21.36 16.64Q21.48 13.52 21.48 13.34ZM42.67 22.98L42.67 22.98L42.67 22.98Q42.67 21.76 42.85 20.67L42.85 20.67L42.69 20.67L42.69 20.67Q41.70 24.08 38.79 24.08L38.79 24.08L38.79 24.08Q36.58 24.08 35.52 22.48L35.52 22.48L35.52 22.48Q34.45 20.88 34.45 18.04L34.45 18.04L34.45 18.04Q34.45 15.21 35.92 13.22L35.92 13.22L35.92 13.22Q37.39 11.23 40.25 11.23L40.25 11.23L40.25 11.23Q41.31 11.23 42.37 11.45L42.37 11.45L42.37 11.45Q43.42 11.67 44.43 12.12L44.43 12.12L44.46 22.98L44.46 22.98Q44.46 26.29 43.25 28.15L43.25 28.15L43.25 28.15Q42.04 30.00 39.18 30.00L39.18 30.00L39.18 30.00Q38.14 30.00 37.05 29.63L37.05 29.63L37.05 29.63Q35.96 29.25 35.31 28.57L35.31 28.57L35.59 27.56L35.59 27.56Q37.10 28.55 39.12 28.55L39.12 28.55L39.12 28.55Q41.13 28.55 41.90 27.13L41.90 27.13L41.90 27.13Q42.67 25.71 42.67 22.98ZM38.97 22.65L38.97 22.65L38.97 22.65Q42.69 22.65 42.69 13.08L42.69 13.08L42.69 13.08Q41.86 12.61 40.25 12.61L40.25 12.61L40.25 12.61Q36.40 12.61 36.40 18.41L36.40 18.41L36.40 18.41Q36.40 20.20 37.00 21.42L37.00 21.42L37.00 21.42Q37.60 22.65 38.97 22.65ZM48.91 11.49L50.49 11.31L50.49 11.31Q51.01 11.52 51.01 12.52L51.01 12.52L51.01 12.52Q51.01 13.52 50.83 14.48L50.83 14.48L50.99 14.48L50.99 14.48Q51.87 11.23 54.91 11.23L54.91 11.23L54.91 11.23Q57.17 11.23 58.08 12.70L58.08 12.70L58.08 12.70Q58.99 14.17 58.99 17.11L58.99 17.11L58.99 17.11Q58.99 20.05 57.55 22.06L57.55 22.06L57.55 22.06Q56.11 24.08 53.20 24.08L53.20 24.08L53.20 24.08Q52.08 24.08 50.93 23.61L50.93 23.61L50.93 29.69L49.19 29.69L49.19 15.37L49.19 15.37Q49.19 12.74 48.91 11.49L48.91 11.49ZM50.93 19.63L50.93 19.63L50.93 22.31L50.93 22.31Q51.69 22.70 53.20 22.70L53.20 22.70L53.20 22.70Q57.04 22.70 57.04 16.61L57.04 16.61L57.04 16.61Q57.04 12.71 54.60 12.71L54.60 12.71L54.60 12.71Q53.59 12.71 52.83 13.38L52.83 13.38L52.83 13.38Q52.08 14.04 51.69 15.13L51.69 15.13L51.69 15.13Q50.93 17.21 50.93 19.63ZM67.05 22.70L67.05 22.70L67.05 22.70Q68.35 22.70 69.19 21.89L69.19 21.89L69.19 21.89Q70.02 21.09 70.32 19.94L70.32 19.94L70.32 19.94Q70.62 18.80 70.62 17.32L70.62 17.32L70.62 17.32Q70.62 12.66 67.31 12.66L67.31 12.66L67.31 12.66Q66.09 12.66 65.29 13.44L65.29 13.44L65.29 13.44Q63.83 14.82 63.83 17.84L63.83 17.84L63.83 17.84Q63.83 22.70 67.05 22.70ZM72.57 17.34L72.57 17.34L72.57 17.34Q72.57 20.20 71.12 22.14L71.12 22.14L71.12 22.14Q69.68 24.08 66.96 24.08L66.96 24.08L66.96 24.08Q64.25 24.08 63.10 22.50L63.10 22.50L63.10 22.50Q61.96 20.93 61.96 17.89L61.96 17.89L61.96 17.89Q61.96 14.85 63.28 13.04L63.28 13.04L63.28 13.04Q64.61 11.23 67.29 11.23L67.29 11.23L67.29 11.23Q69.97 11.23 71.27 12.86L71.27 12.86L71.27 12.86Q72.57 14.48 72.57 17.34ZM78.60 22.65L78.60 22.65L78.60 22.65Q79.74 22.65 80.52 22.11L80.52 22.11L80.52 22.11Q81.30 21.58 81.30 20.59L81.30 20.59L81.30 20.59Q81.30 19.55 80.31 18.95L80.31 18.95L80.31 18.95Q79.82 18.67 79.12 18.37L79.12 18.37L79.12 18.37Q78.42 18.07 78.26 17.99L78.26 17.99L78.26 17.99Q76.96 17.42 76.24 16.64L76.24 16.64L76.24 16.64Q75.53 15.86 75.53 14.42L75.53 14.42L75.53 14.42Q75.53 12.97 76.70 12.10L76.70 12.10L76.70 12.10Q77.87 11.23 79.46 11.23L79.46 11.23L79.46 11.23Q81.04 11.23 82.32 11.86L82.32 11.86L82.03 13.03L82.03 13.03Q80.73 12.66 79.73 12.66L79.73 12.66L79.73 12.66Q78.73 12.66 78.00 13.12L78.00 13.12L78.00 13.12Q77.27 13.57 77.27 14.38L77.27 14.38L77.27 14.38Q77.27 15.18 77.77 15.64L77.77 15.64L77.77 15.64Q78.26 16.09 78.79 16.33L78.79 16.33L78.79 16.33Q79.33 16.56 79.94 16.81L79.94 16.81L79.94 16.81Q80.55 17.06 80.73 17.16L80.73 17.16L80.73 17.16Q80.91 17.26 81.41 17.54L81.41 17.54L81.41 17.54Q81.90 17.81 82.09 18.04L82.09 18.04L82.09 18.04Q82.29 18.28 82.55 18.67L82.55 18.67L82.55 18.67Q83.04 19.32 83.04 20.51L83.04 20.51L83.04 20.51Q83.04 22.23 81.77 23.15L81.77 23.15L81.77 23.15Q80.50 24.08 78.53 24.08L78.53 24.08L78.53 24.08Q76.57 24.08 75.06 22.78L75.06 22.78L75.35 21.74L75.35 21.74Q76.83 22.65 78.60 22.65ZM92.17 22.46L92.17 22.46L92.43 23.61L92.43 23.61Q91.47 24.08 90.12 24.08L90.12 24.08L90.12 24.08Q88.19 24.08 87.57 23.04L87.57 23.04L87.57 23.04Q86.94 22.00 86.94 19.73L86.94 19.73L86.94 12.92L84.86 12.92L84.86 11.80L86.94 11.54L86.94 8.84L88.82 8.53L88.82 11.54L92.17 11.54L92.17 12.92L88.82 12.92L88.82 19.16L88.82 19.16Q88.82 21.58 89.23 22.10L89.23 22.10L89.23 22.10Q89.75 22.70 90.64 22.70L90.64 22.70L90.64 22.70Q91.52 22.70 92.17 22.46ZM108.13 14.90L108.13 14.90L108.13 13.00L108.13 13.00Q107.38 12.61 105.87 12.61L105.87 12.61L105.87 12.61Q102.02 12.61 102.02 18.41L102.02 18.41L102.02 18.41Q102.02 22.65 104.60 22.65L104.60 22.65L104.60 22.65Q105.69 22.65 106.43 21.91L106.43 21.91L106.43 21.91Q107.17 21.16 107.54 19.89L107.54 19.89L107.54 19.89Q108.13 17.68 108.13 14.90ZM104.42 24.08L104.42 24.08L104.42 24.08Q102.15 24.08 101.11 22.52L101.11 22.52L101.11 22.52Q100.07 20.96 100.07 18.08L100.07 18.08L100.07 18.08Q100.07 15.21 101.54 13.22L101.54 13.22L101.54 13.22Q103.01 11.23 105.87 11.23L105.87 11.23L105.87 11.23Q106.89 11.23 107.89 11.44L107.89 11.44L107.89 11.44Q108.89 11.65 109.88 12.04L109.88 12.04L109.88 18.64L109.88 18.64Q109.88 21.29 110.34 22.00L110.34 22.00L110.34 22.00Q110.79 22.70 111.83 22.70L111.83 22.70L111.88 23.87L111.88 23.87Q111.46 23.97 110.84 23.97L110.84 23.97L110.84 23.97Q109.46 23.97 108.86 23.01L108.86 23.01L108.86 23.01Q108.42 22.31 108.42 21.35L108.42 21.35L108.42 21.35Q108.42 21.03 108.47 20.67L108.47 20.67L108.32 20.67L108.32 20.67Q107.87 22.23 106.90 23.15L106.90 23.15L106.90 23.15Q105.92 24.08 104.42 24.08ZM116.64 11.31L116.64 12.06L116.64 12.06Q116.64 13.44 116.43 14.38L116.43 14.38L116.58 14.38L116.58 14.38Q116.97 12.90 117.88 12.06L117.88 12.06L117.88 12.06Q118.79 11.23 120.15 11.23L120.15 11.23L120.15 11.23Q123.34 11.23 123.34 14.38L123.34 14.38L123.50 14.38L123.50 14.38Q124.31 11.23 127.09 11.23L127.09 11.23L127.09 11.23Q129.17 11.23 129.84 12.21L129.84 12.21L129.84 12.21Q130.52 13.18 130.52 15.29L130.52 15.29L130.52 15.29Q130.52 15.39 130.48 17.90L130.48 17.90L130.48 17.90Q130.44 20.41 130.44 21.19L130.44 21.19L130.44 21.19Q130.44 21.97 130.61 22.31L130.61 22.31L130.61 22.31Q130.78 22.65 131.72 22.65L131.72 22.65L131.77 23.82L131.77 23.82Q131.40 23.97 130.70 23.97L130.70 23.97L130.70 23.97Q129.45 23.97 129.00 23.40L129.00 23.40L129.00 23.40Q128.54 22.83 128.54 21.58L128.54 21.58L128.54 21.58Q128.54 21.53 128.60 18.71L128.60 18.71L128.60 18.71Q128.65 15.89 128.65 15.65L128.65 15.65L128.65 15.65Q128.65 14.20 128.34 13.46L128.34 13.46L128.34 13.46Q128.02 12.71 126.85 12.71L126.85 12.71L126.85 12.71Q123.58 12.71 123.58 19.94L123.58 19.94L123.58 23.76L121.78 23.76L121.78 16.12L121.78 16.12Q121.78 13.81 121.39 13.31L121.39 13.31L121.39 13.31Q120.87 12.71 119.91 12.71L119.91 12.71L119.91 12.71Q116.58 12.71 116.58 20.15L116.58 20.15L116.58 23.76L114.79 23.76L114.79 11.54L116.64 11.31ZM141.28 23.76L141.36 6.03L141.36 6.03Q143.68 5.72 146.13 5.72L146.13 5.72L146.13 5.72Q148.59 5.72 150.05 6.94L150.05 6.94L150.05 6.94Q151.50 8.16 151.50 10.37L151.50 10.37L151.50 10.37Q151.50 14.14 147.68 15.18L147.68 15.18L150.28 20.31L150.28 20.31Q150.90 21.58 151.44 22.09L151.44 22.09L151.44 22.09Q151.97 22.59 152.72 22.59L152.72 22.59L152.80 23.84L152.80 23.84Q152.70 23.95 151.78 23.95L151.78 23.95L151.78 23.95Q150.85 23.95 150.12 23.28L150.12 23.28L150.12 23.28Q149.40 22.62 148.69 21.22L148.69 21.22L145.78 15.50L145.78 15.50Q145.39 15.57 144.87 15.57L144.87 15.57L143.26 15.57L143.26 23.76L141.28 23.76ZM143.26 7.59L143.26 13.94L144.92 13.94L144.92 13.94Q149.42 13.94 149.42 10.48L149.42 10.48L149.42 10.48Q149.42 7.44 145.83 7.44L145.83 7.44L145.83 7.44Q144.38 7.44 143.26 7.59L143.26 7.59ZM157.46 4.39L157.46 11.80L157.46 11.80Q157.46 13.18 157.25 14.12L157.25 14.12L157.40 14.12L157.40 14.12Q158.47 11.23 161.38 11.23L161.38 11.23L161.38 11.23Q163.44 11.23 164.22 12.26L164.22 12.26L164.22 12.26Q165.00 13.29 165.00 15.34L165.00 15.34L165.00 15.34Q165.00 15.42 164.96 17.99L164.96 17.99L164.96 17.99Q164.92 20.57 164.92 21.27L164.92 21.27L164.92 21.27Q164.92 21.97 165.09 22.31L165.09 22.31L165.09 22.31Q165.26 22.65 166.19 22.65L166.19 22.65L166.24 23.82L166.24 23.82Q165.88 23.97 165.18 23.97L165.18 23.97L165.18 23.97Q163.93 23.97 163.48 23.40L163.48 23.40L163.48 23.40Q163.02 22.83 163.02 21.58L163.02 21.58L163.02 21.58Q163.02 21.53 163.07 18.77L163.07 18.77L163.07 18.77Q163.12 16.02 163.12 15.91L163.12 15.91L163.12 15.91Q163.12 14.40 162.73 13.56L162.73 13.56L162.73 13.56Q162.34 12.71 161.02 12.71L161.02 12.71L161.02 12.71Q159.69 12.71 158.82 13.88L158.82 13.88L158.82 13.88Q157.95 15.05 157.68 16.50L157.68 16.50L157.68 16.50Q157.40 17.94 157.40 19.63L157.40 19.63L157.40 23.76L155.61 23.76L155.61 4.71L157.46 4.39ZM176.02 14.22L176.02 14.22L176.02 14.22Q176.02 13.47 175.55 13.08L175.55 13.08L175.55 13.08Q175.08 12.69 174.30 12.69L174.30 12.69L174.30 12.69Q172.74 12.69 171.86 13.98L171.86 13.98L171.86 13.98Q170.98 15.26 170.85 17.08L170.85 17.08L170.85 17.08Q176.02 17.08 176.02 14.22ZM173.78 24.08L173.78 24.08L173.78 24.08Q168.90 24.08 168.90 17.84L168.90 17.84L168.90 17.84Q168.90 14.98 170.34 13.10L170.34 13.10L170.34 13.10Q171.78 11.23 174.41 11.23L174.41 11.23L174.41 11.23Q176.02 11.23 176.97 12.00L176.97 12.00L176.97 12.00Q177.92 12.77 177.92 14.11L177.92 14.11L177.92 14.11Q177.92 15.44 177.28 16.29L177.28 16.29L177.28 16.29Q176.64 17.13 175.55 17.58L175.55 17.58L175.55 17.58Q173.50 18.41 170.79 18.41L170.79 18.41L170.79 18.41Q170.79 22.54 174.10 22.54L174.10 22.54L174.10 22.54Q175.76 22.54 177.24 21.63L177.24 21.63L177.53 22.65L177.53 22.65Q176.88 23.30 175.82 23.69L175.82 23.69L175.82 23.69Q174.77 24.08 173.78 24.08ZM183.22 23.97L183.22 23.97L183.22 23.97Q182.03 23.97 181.56 23.40L181.56 23.40L181.56 23.40Q181.09 22.83 181.09 21.53L181.09 21.53L181.09 11.54L182.96 11.54L182.96 20.46L182.96 20.46Q182.96 21.84 183.17 22.24L183.17 22.24L183.17 22.24Q183.38 22.65 184.37 22.65L184.37 22.65L184.42 23.79L184.42 23.79Q183.82 23.97 183.22 23.97ZM180.91 7.46L180.91 7.46L180.91 7.46Q180.91 6.24 182.10 6.24L182.10 6.24L182.10 6.24Q183.20 6.24 183.20 7.42L183.20 7.42L183.20 7.42Q183.20 8.61 182.05 8.61L182.05 8.61L182.05 8.61Q180.91 8.61 180.91 7.46ZM189.75 11.31L189.75 12.06L189.75 12.06Q189.75 13.44 189.54 14.38L189.54 14.38L189.70 14.38L189.70 14.38Q190.06 12.92 191.11 12.08L191.11 12.08L191.11 12.08Q192.17 11.23 193.67 11.23L193.67 11.23L193.67 11.23Q195.73 11.23 196.51 12.26L196.51 12.26L196.51 12.26Q197.29 13.29 197.29 15.34L197.29 15.34L197.29 15.34Q197.29 15.42 197.25 17.99L197.25 17.99L197.25 17.99Q197.21 20.57 197.21 21.27L197.21 21.27L197.21 21.27Q197.21 21.97 197.38 22.31L197.38 22.31L197.38 22.31Q197.55 22.65 198.48 22.65L198.48 22.65L198.54 23.82L198.54 23.82Q198.17 23.97 197.47 23.97L197.47 23.97L197.47 23.97Q196.22 23.97 195.77 23.40L195.77 23.40L195.77 23.40Q195.31 22.83 195.31 21.58L195.31 21.58L195.31 21.58Q195.31 21.53 195.36 18.77L195.36 18.77L195.36 18.77Q195.42 16.02 195.42 15.91L195.42 15.91L195.42 15.91Q195.42 14.40 195.03 13.56L195.03 13.56L195.03 13.56Q194.64 12.71 193.48 12.71L193.48 12.71L193.48 12.71Q192.32 12.71 191.56 13.44L191.56 13.44L191.56 13.44Q190.79 14.17 190.40 15.34L190.40 15.34L190.40 15.34Q189.70 17.60 189.70 20.15L189.70 20.15L189.70 23.76L187.90 23.76L187.90 11.54L189.75 11.31ZM207.53 13.34L207.53 13.34L207.53 13.34Q207.53 12.09 207.22 11.49L207.22 11.49L208.70 11.23L208.70 11.23Q209.14 11.34 209.26 11.75L209.26 11.75L209.26 11.75Q209.38 12.17 209.38 12.61L209.38 12.61L209.38 12.61Q209.38 12.92 209.27 16.19L209.27 16.19L209.27 16.19Q209.17 19.45 209.17 19.81L209.17 19.81L209.17 19.81Q209.17 20.18 209.21 20.63L209.21 20.63L209.21 20.63Q209.25 21.09 209.46 21.58L209.46 21.58L209.46 21.58Q209.82 22.59 211.22 22.59L211.22 22.59L211.22 22.59Q212.26 22.59 213.01 21.85L213.01 21.85L213.01 21.85Q213.75 21.11 214.08 19.89L214.08 19.89L214.08 19.89Q214.73 17.68 214.73 15.05L214.73 15.05L214.73 11.54L216.48 11.54L216.48 18.64L216.48 18.64Q216.48 20.96 216.81 21.83L216.81 21.83L216.81 21.83Q217.15 22.70 218.32 22.70L218.32 22.70L218.37 23.87L218.37 23.87Q217.96 23.97 217.33 23.97L217.33 23.97L217.33 23.97Q216.03 23.97 215.53 23.21L215.53 23.21L215.53 23.21Q215.02 22.44 215.02 21.42L215.02 21.42L215.02 21.42Q215.02 21.14 215.05 20.83L215.05 20.83L214.89 20.83L214.89 20.83Q214.47 22.41 213.37 23.24L213.37 23.24L213.37 23.24Q212.26 24.08 210.48 24.08L210.48 24.08L210.48 24.08Q208.70 24.08 208.00 22.98L208.00 22.98L208.00 22.98Q207.30 21.89 207.30 19.99L207.30 19.99L207.30 19.99Q207.30 19.76 207.42 16.64L207.42 16.64L207.42 16.64Q207.53 13.52 207.53 13.34ZM223.24 11.31L223.24 12.06L223.24 12.06Q223.24 13.44 223.03 14.38L223.03 14.38L223.18 14.38L223.18 14.38Q223.55 12.92 224.60 12.08L224.60 12.08L224.60 12.08Q225.65 11.23 227.16 11.23L227.16 11.23L227.16 11.23Q229.22 11.23 230.00 12.26L230.00 12.26L230.00 12.26Q230.78 13.29 230.78 15.34L230.78 15.34L230.78 15.34Q230.78 15.42 230.74 17.99L230.74 17.99L230.74 17.99Q230.70 20.57 230.70 21.27L230.70 21.27L230.70 21.27Q230.70 21.97 230.87 22.31L230.87 22.31L230.87 22.31Q231.04 22.65 231.97 22.65L231.97 22.65L232.02 23.82L232.02 23.82Q231.66 23.97 230.96 23.97L230.96 23.97L230.96 23.97Q229.71 23.97 229.26 23.40L229.26 23.40L229.26 23.40Q228.80 22.83 228.80 21.58L228.80 21.58L228.80 21.58Q228.80 21.53 228.85 18.77L228.85 18.77L228.85 18.77Q228.90 16.02 228.90 15.91L228.90 15.91L228.90 15.91Q228.90 14.40 228.51 13.56L228.51 13.56L228.51 13.56Q228.12 12.71 226.97 12.71L226.97 12.71L226.97 12.71Q225.81 12.71 225.04 13.44L225.04 13.44L225.04 13.44Q224.28 14.17 223.89 15.34L223.89 15.34L223.89 15.34Q223.18 17.60 223.18 20.15L223.18 20.15L223.18 23.76L221.39 23.76L221.39 11.54L223.24 11.31ZM238.99 24.08L238.99 24.08L238.99 24.08Q236.73 24.08 235.69 22.52L235.69 22.52L235.69 22.52Q234.65 20.96 234.65 18.08L234.65 18.08L234.65 18.08Q234.65 15.21 236.12 13.22L236.12 13.22L236.12 13.22Q237.59 11.23 240.45 11.23L240.45 11.23L240.45 11.23Q241.57 11.23 242.71 11.70L242.71 11.70L242.71 4.71L244.45 4.39L244.45 18.64L244.45 18.64Q244.45 20.96 244.79 21.83L244.79 21.83L244.79 21.83Q245.13 22.70 246.30 22.70L246.30 22.70L246.35 23.87L246.35 23.87Q246.01 23.97 245.31 23.97L245.31 23.97L245.31 23.97Q244.01 23.97 243.50 23.19L243.50 23.19L243.50 23.19Q243.00 22.41 243.00 21.40L243.00 21.40L243.00 21.40Q243.00 21.14 243.02 20.83L243.02 20.83L242.87 20.83L242.87 20.83Q241.83 24.08 238.99 24.08ZM242.71 15.68L242.71 15.68L242.71 13.00L242.71 13.00Q241.96 12.61 240.45 12.61L240.45 12.61L240.45 12.61Q236.60 12.61 236.60 18.41L236.60 18.41L236.60 18.41Q236.60 22.65 239.17 22.65L239.17 22.65L239.17 22.65Q240.19 22.65 240.93 21.98L240.93 21.98L240.93 21.98Q241.67 21.32 242.03 20.23L242.03 20.23L242.03 20.23Q242.71 18.17 242.71 15.68ZM261.98 14.90L261.98 14.90L261.98 13.00L261.98 13.00Q261.22 12.61 259.71 12.61L259.71 12.61L259.71 12.61Q255.87 12.61 255.87 18.41L255.87 18.41L255.87 18.41Q255.87 22.65 258.44 22.65L258.44 22.65L258.44 22.65Q259.53 22.65 260.27 21.91L260.27 21.91L260.27 21.91Q261.01 21.16 261.38 19.89L261.38 19.89L261.38 19.89Q261.98 17.68 261.98 14.90ZM258.26 24.08L258.26 24.08L258.26 24.08Q256.00 24.08 254.96 22.52L254.96 22.52L254.96 22.52Q253.92 20.96 253.92 18.08L253.92 18.08L253.92 18.08Q253.92 15.21 255.39 13.22L255.39 13.22L255.39 13.22Q256.85 11.23 259.71 11.23L259.71 11.23L259.71 11.23Q260.73 11.23 261.73 11.44L261.73 11.44L261.73 11.44Q262.73 11.65 263.72 12.04L263.72 12.04L263.72 18.64L263.72 18.64Q263.72 21.29 264.19 22.00L264.19 22.00L264.19 22.00Q264.63 22.70 265.67 22.70L265.67 22.70L265.72 23.87L265.72 23.87Q265.30 23.97 264.68 23.97L264.68 23.97L264.68 23.97Q263.30 23.97 262.70 23.01L262.70 23.01L262.70 23.01Q262.26 22.31 262.26 21.35L262.26 21.35L262.26 21.35Q262.26 21.03 262.31 20.67L262.31 20.67L262.16 20.67L262.16 20.67Q261.72 22.23 260.74 23.15L260.74 23.15L260.74 23.15Q259.77 24.08 258.26 24.08ZM270.48 11.31L270.48 12.06L270.48 12.06Q270.48 13.44 270.27 14.38L270.27 14.38L270.43 14.38L270.43 14.38Q270.82 12.90 271.73 12.06L271.73 12.06L271.73 12.06Q272.64 11.23 273.99 11.23L273.99 11.23L273.99 11.23Q277.19 11.23 277.19 14.38L277.19 14.38L277.34 14.38L277.34 14.38Q278.15 11.23 280.93 11.23L280.93 11.23L280.93 11.23Q283.01 11.23 283.69 12.21L283.69 12.21L283.69 12.21Q284.36 13.18 284.36 15.29L284.36 15.29L284.36 15.29Q284.36 15.39 284.32 17.90L284.32 17.90L284.32 17.90Q284.28 20.41 284.28 21.19L284.28 21.19L284.28 21.19Q284.28 21.97 284.45 22.31L284.45 22.31L284.45 22.31Q284.62 22.65 285.56 22.65L285.56 22.65L285.61 23.82L285.61 23.82Q285.25 23.97 284.54 23.97L284.54 23.97L284.54 23.97Q283.30 23.97 282.84 23.40L282.84 23.40L282.84 23.40Q282.39 22.83 282.39 21.58L282.39 21.58L282.39 21.58Q282.39 21.53 282.44 18.71L282.44 18.71L282.44 18.71Q282.49 15.89 282.49 15.65L282.49 15.65L282.49 15.65Q282.49 14.20 282.18 13.46L282.18 13.46L282.18 13.46Q281.87 12.71 280.70 12.71L280.70 12.71L280.70 12.71Q277.42 12.71 277.42 19.94L277.42 19.94L277.42 23.76L275.63 23.76L275.63 16.12L275.63 16.12Q275.63 13.81 275.24 13.31L275.24 13.31L275.24 13.31Q274.72 12.71 273.75 12.71L273.75 12.71L273.75 12.71Q270.43 12.71 270.43 20.15L270.43 20.15L270.43 23.76L268.63 23.76L268.63 11.54L270.48 11.31ZM297.91 7.77L297.75 7.77L297.75 7.77Q297.86 7.88 297.86 8.52L297.86 8.52L297.86 8.52Q297.86 9.15 297.83 9.65L297.83 9.65L296.63 23.76L294.68 23.76L296.24 5.82L299.08 5.82L302.72 17.58L302.72 17.58Q302.93 18.25 302.98 19.06L302.98 19.06L303.13 19.06L303.13 19.06Q303.16 18.36 303.39 17.58L303.39 17.58L307.06 5.82L309.87 5.82L311.32 23.76L309.37 23.76L309.37 23.76Q308.26 9.20 308.26 8.70L308.26 8.70L308.26 8.70Q308.26 8.19 308.36 7.77L308.36 7.77L308.20 7.77L304.04 21.14L302.09 21.37L297.91 7.77ZM323.28 14.90L323.28 14.90L323.28 13.00L323.28 13.00Q322.53 12.61 321.02 12.61L321.02 12.61L321.02 12.61Q317.17 12.61 317.17 18.41L317.17 18.41L317.17 18.41Q317.17 22.65 319.75 22.65L319.75 22.65L319.75 22.65Q320.84 22.65 321.58 21.91L321.58 21.91L321.58 21.91Q322.32 21.16 322.69 19.89L322.69 19.89L322.69 19.89Q323.28 17.68 323.28 14.90ZM319.57 24.08L319.57 24.08L319.57 24.08Q317.30 24.08 316.26 22.52L316.26 22.52L316.26 22.52Q315.22 20.96 315.22 18.08L315.22 18.08L315.22 18.08Q315.22 15.21 316.69 13.22L316.69 13.22L316.69 13.22Q318.16 11.23 321.02 11.23L321.02 11.23L321.02 11.23Q322.04 11.23 323.04 11.44L323.04 11.44L323.04 11.44Q324.04 11.65 325.03 12.04L325.03 12.04L325.03 18.64L325.03 18.64Q325.03 21.29 325.49 22.00L325.49 22.00L325.49 22.00Q325.94 22.70 326.98 22.70L326.98 22.70L327.03 23.87L327.03 23.87Q326.61 23.97 325.99 23.97L325.99 23.97L325.99 23.97Q324.61 23.97 324.01 23.01L324.01 23.01L324.01 23.01Q323.57 22.31 323.57 21.35L323.57 21.35L323.57 21.35Q323.57 21.03 323.62 20.67L323.62 20.67L323.47 20.67L323.47 20.67Q323.02 22.23 322.05 23.15L322.05 23.15L322.05 23.15Q321.07 24.08 319.57 24.08ZM332.12 23.97L332.12 23.97L332.12 23.97Q330.93 23.97 330.46 23.40L330.46 23.40L330.46 23.40Q329.99 22.83 329.99 21.53L329.99 21.53L329.99 11.54L331.86 11.54L331.86 20.46L331.86 20.46Q331.86 21.84 332.07 22.24L332.07 22.24L332.07 22.24Q332.28 22.65 333.27 22.65L333.27 22.65L333.32 23.79L333.32 23.79Q332.72 23.97 332.12 23.97ZM329.81 7.46L329.81 7.46L329.81 7.46Q329.81 6.24 331.01 6.24L331.01 6.24L331.01 6.24Q332.10 6.24 332.10 7.42L332.10 7.42L332.10 7.42Q332.10 8.61 330.95 8.61L330.95 8.61L330.95 8.61Q329.81 8.61 329.81 7.46ZM338.65 11.31L338.65 12.06L338.65 12.06Q338.65 13.44 338.44 14.38L338.44 14.38L338.60 14.38L338.60 14.38Q338.96 12.92 340.01 12.08L340.01 12.08L340.01 12.08Q341.07 11.23 342.58 11.23L342.58 11.23L342.58 11.23Q344.63 11.23 345.41 12.26L345.41 12.26L345.41 12.26Q346.19 13.29 346.19 15.34L346.19 15.34L346.19 15.34Q346.19 15.42 346.15 17.99L346.15 17.99L346.15 17.99Q346.11 20.57 346.11 21.27L346.11 21.27L346.11 21.27Q346.11 21.97 346.28 22.31L346.28 22.31L346.28 22.31Q346.45 22.65 347.39 22.65L347.39 22.65L347.44 23.82L347.44 23.82Q347.07 23.97 346.37 23.97L346.37 23.97L346.37 23.97Q345.12 23.97 344.67 23.40L344.67 23.40L344.67 23.40Q344.21 22.83 344.21 21.58L344.21 21.58L344.21 21.58Q344.21 21.53 344.27 18.77L344.27 18.77L344.27 18.77Q344.32 16.02 344.32 15.91L344.32 15.91L344.32 15.91Q344.32 14.40 343.93 13.56L343.93 13.56L343.93 13.56Q343.54 12.71 342.38 12.71L342.38 12.71L342.38 12.71Q341.22 12.71 340.46 13.44L340.46 13.44L340.46 13.44Q339.69 14.17 339.30 15.34L339.30 15.34L339.30 15.34Q338.60 17.60 338.60 20.15L338.60 20.15L338.60 23.76L336.80 23.76L336.80 11.54L338.65 11.31Z"/></svg>
